<svg width="98" height="40" viewBox="0 0 98 40" fill="none" xmlns="http://www.w3.org/2000/svg">
<path d="M37.1446 22.9641C37.1969 22.9737 37.2492 22.9833 37.3031 22.9932C39.6769 23.4459 42.0037 24.6153 43.5686 26.5382C43.6095 26.5861 43.6505 26.6341 43.6927 26.6834C44.8458 28.0357 45.6162 29.6526 45.9958 31.3999C46.0051 31.4426 46.0144 31.4854 46.024 31.5294C46.1684 32.2426 46.2152 32.9538 46.2117 33.6802C46.2116 33.7386 46.2116 33.7386 46.2115 33.7982C46.2092 34.3831 46.1914 34.9531 46.0505 35.5231C46.0422 35.5575 46.0338 35.592 46.0252 35.6275C45.8453 36.3408 45.5449 36.9381 45.0285 37.4591C45.0034 37.4864 44.9782 37.5137 44.9523 37.5419C44.7697 37.7233 44.5503 37.8419 44.3259 37.9617C44.2967 37.9778 44.2674 37.994 44.2372 38.0106C43.6083 38.3309 42.8927 38.3944 42.2031 38.4521C42.1107 38.4602 42.0184 38.4684 41.9261 38.4765C40.5259 38.5975 39.122 38.6743 37.7194 38.7587C35.9177 38.8672 34.1214 38.9982 32.3267 39.1965C32.2865 39.2009 32.2463 39.2053 32.2049 39.2099C31.6462 39.2713 31.088 39.336 30.5298 39.4017C22.4921 40.3445 22.4921 40.3445 19.7039 38.1354C18.7613 37.3625 18.2311 36.2961 18.0829 35.0763C17.8791 32.7642 18.6878 30.6682 20.1257 28.9108C20.5808 28.3625 21.0679 27.8781 21.6202 27.4317C21.7033 27.3604 21.7864 27.289 21.8696 27.2177C22.4472 26.7367 23.0666 26.3202 23.7128 25.9425C23.7439 25.924 23.7749 25.9055 23.807 25.8865C26.5997 24.2261 29.7993 23.217 33.008 22.8648C33.0689 22.8577 33.0689 22.8577 33.1311 22.8504C34.4344 22.7171 35.8552 22.7245 37.1446 22.9641ZM33.1593 29.3066C33.0562 29.3181 32.9531 29.3294 32.85 29.3406C31.7014 29.4666 30.5475 29.6109 29.4554 30.013C29.4026 30.0324 29.3499 30.0517 29.2955 30.0716C28.758 30.2837 28.1958 30.6271 27.9255 31.1672C27.8255 31.4252 27.8094 31.6754 27.8494 31.949C27.97 32.2257 28.1658 32.3779 28.4334 32.495C29.5217 32.8314 30.7442 32.617 31.835 32.4033C32.6161 32.2511 33.3914 32.193 34.1849 32.1513C36.073 32.0858 36.073 32.0858 37.68 31.2044C37.8873 30.9372 37.9075 30.7066 37.8965 30.3685C37.8526 30.0535 37.6802 29.8158 37.4326 29.6237C36.1998 28.8656 34.5137 29.1546 33.1593 29.3066Z" fill="#1447E6"/>
<path d="M21.5226 2.46295C21.594 2.49594 21.594 2.49594 21.6668 2.5296C22.9706 3.13544 24.1608 3.85319 25.1725 4.89533C25.1999 4.92335 25.2273 4.95138 25.2554 4.98026C25.6976 5.46545 25.9889 6.07911 26.2432 6.68238C26.2706 6.67538 26.298 6.66838 26.3262 6.66117C28.6634 6.06796 28.6634 6.06796 29.7367 6.60075C30.1705 6.8763 30.4217 7.263 30.5836 7.74965C30.9641 9.42134 30.2116 11.1902 29.4552 12.6392C29.423 12.6884 29.3909 12.7375 29.3578 12.7881C29.3839 12.7827 29.41 12.7773 29.4369 12.7717C29.5202 12.7545 29.6035 12.7376 29.6869 12.7209C29.8007 12.6977 29.9144 12.6737 30.0279 12.6491C30.6532 12.5168 31.3163 12.4189 31.9006 12.7511C32.1643 12.938 32.4277 13.1938 32.5046 13.5201C32.51 13.5571 32.5155 13.594 32.5211 13.632C32.498 13.6479 32.4748 13.6639 32.4509 13.6802C31.5462 14.303 30.6694 14.9585 29.8205 15.6584C29.3592 16.0382 28.8877 16.4024 28.4121 16.7634C28.2903 16.8563 28.1691 16.9498 28.048 17.0436C25.7212 18.8443 25.7212 18.8443 25.4645 18.8443C25.4666 18.7808 25.4686 18.7173 25.4706 18.6519C25.4718 18.1898 25.4718 18.1898 25.2699 17.8018C24.9409 17.8359 24.7209 18.2123 24.5277 18.4534C24.4906 18.5004 24.4534 18.5475 24.4152 18.5961C24.3143 18.7227 24.2114 18.847 24.1071 18.9707C23.8405 19.287 23.5903 19.6136 23.3477 19.9495C23.118 20.2629 22.8725 20.4523 22.5324 20.6344C22.4969 20.6534 22.4615 20.6724 22.4249 20.692C20.155 21.8849 17.3271 22.9551 14.7713 22.1499C13.9283 21.8656 12.9894 21.2775 12.5194 20.4824C12.5811 20.2935 12.6415 20.2739 12.8068 20.1731C12.8575 20.1419 12.9081 20.1106 12.9603 20.0784C12.9875 20.0619 13.0148 20.0453 13.0428 20.0283C13.1882 19.9399 13.3327 19.8501 13.4773 19.7605C13.5071 19.7421 13.5369 19.7237 13.5676 19.7047C13.8629 19.5219 14.1542 19.3328 14.4447 19.1421C14.5197 19.0929 14.5197 19.0929 14.5963 19.0427C14.6973 18.9763 14.7983 18.91 14.8993 18.8436C15.0488 18.7457 15.1988 18.6486 15.3488 18.5517C16.678 17.692 17.9848 16.7917 19.2353 15.8162C19.2644 15.7935 19.2936 15.7708 19.3236 15.7474C20.5082 14.8489 20.5082 14.8489 21.4739 13.7313C21.4739 13.6658 21.4739 13.6003 21.4739 13.5328C21.1822 13.5626 20.927 13.6463 20.6527 13.7499C20.6061 13.7675 20.5595 13.785 20.5115 13.803C18.5972 14.5358 16.8303 15.5672 15.0922 16.653C14.84 16.8105 14.5876 16.9677 14.3351 17.1246C14.2456 17.1803 14.1562 17.2362 14.0668 17.2921C14.0128 17.3257 13.9588 17.3592 13.9031 17.3938C13.8555 17.4236 13.8078 17.4533 13.7587 17.4839C13.6387 17.5536 13.6387 17.5536 13.4927 17.6033C13.3395 16.4763 13.208 15.3473 13.0816 14.2169C13.0566 13.9932 13.0314 13.7695 13.0062 13.5457C12.9573 13.1112 12.9086 12.6767 12.86 12.2421C13.027 12.1485 13.1942 12.0551 13.3613 11.9617C13.4078 11.9356 13.4543 11.9096 13.5022 11.8827C13.9012 11.6601 14.3062 11.4516 14.7145 11.2474C14.9984 11.1036 15.2783 10.9523 15.5586 10.8013C15.9906 10.5687 16.4249 10.3407 16.8598 10.1138C16.9017 10.0919 16.9436 10.07 16.9868 10.0475C17.6135 9.72053 18.2409 9.39477 18.8698 9.07206C18.9546 9.02846 19.0395 8.98476 19.1243 8.94096C19.2424 8.87999 19.3606 8.81941 19.479 8.75894C19.5135 8.74104 19.548 8.72315 19.5835 8.70471C19.7888 8.60048 19.9862 8.52693 20.2086 8.46943C20.2086 8.43667 20.2086 8.40391 20.2086 8.37015C20.1803 8.35736 20.152 8.34456 20.1229 8.33137C20.0048 8.2658 19.9251 8.19211 19.8284 8.09713C19.0856 7.41189 18.2568 6.98618 17.2455 7.01183C16.1381 7.07216 15.0512 7.6707 14.0754 8.15822C12.4215 8.97768 10.6475 9.23233 8.86941 8.66799C8.41004 8.50279 8.03057 8.28538 7.65276 7.97303C7.60119 7.93262 7.60119 7.93262 7.54858 7.89139C6.84507 7.31082 6.38206 6.3835 6.2768 5.4755C6.25047 4.91368 6.44577 4.35216 6.67943 3.85288C6.69926 3.80981 6.71908 3.76675 6.73951 3.72238C7.07565 3.04571 7.57744 2.45953 8.09075 1.9169C8.12714 1.87723 8.16352 1.83756 8.20101 1.79668C8.91863 1.0331 9.82136 0.550602 10.8161 0.278773C10.8634 0.265527 10.8634 0.265527 10.9116 0.252013C14.3282 -0.647547 18.4702 1.04274 21.5226 2.46295Z" fill="#1447E6"/>
<path d="M44.5903 12.5892C46.0044 13.793 46.8171 15.479 47.3795 17.2368C47.3942 17.2822 47.4088 17.3276 47.4239 17.3744C47.4726 17.5324 47.5159 17.6914 47.559 17.8511C47.5699 17.8883 47.5809 17.9255 47.5922 17.9638C47.822 18.7523 47.798 19.4251 47.6898 20.2338C47.6753 20.3518 47.6609 20.4699 47.6467 20.5879C47.6043 20.9336 47.5581 21.2788 47.5103 21.6238C47.5035 21.6731 47.4967 21.7225 47.4896 21.7733C47.3622 22.688 47.217 23.6001 47.0236 24.5029C46.8157 24.5029 46.7576 24.475 46.5832 24.3718C46.5347 24.3435 46.4862 24.3152 46.4362 24.2861C46.3841 24.2553 46.3321 24.2244 46.2784 24.1927C46.1679 24.1283 46.0572 24.0642 45.9465 24.0001C45.9185 23.9838 45.8904 23.9676 45.8615 23.9508C45.456 23.7166 45.0421 23.499 44.6273 23.2825C44.4973 23.2145 44.3677 23.1456 44.2381 23.0765C43.1939 22.5256 42.1128 22.0763 40.9982 21.6982C40.9626 21.6861 40.927 21.674 40.8903 21.6616C40.3601 21.4824 39.8249 21.3256 39.2857 21.177C39.1469 19.7245 39.0208 18.2715 38.9137 16.8163C38.9056 16.7068 38.8974 16.5974 38.8892 16.488C38.8762 16.3136 38.8634 16.1393 38.8509 15.965C38.844 15.8707 38.837 15.7765 38.83 15.6822C38.8027 15.2959 38.7939 14.9125 38.7991 14.5252C38.755 14.5238 38.711 14.5224 38.6656 14.5209C37.7264 14.4887 35.4655 14.3515 34.7598 13.6317C34.7324 13.4703 34.7324 13.4703 34.7598 13.2842C34.8319 13.2205 34.8319 13.2205 34.9282 13.1642C34.9638 13.1431 34.9993 13.122 35.0359 13.1002C35.0733 13.079 35.1106 13.0578 35.1491 13.036C35.1838 13.0157 35.2185 12.9955 35.2542 12.9746C38.0632 11.361 41.8436 10.3078 44.5903 12.5892Z" fill="#1447E6"/>
<path d="M38.7984 1.9668C40.5583 2.28114 42.207 2.91312 43.8111 3.70421C43.8544 3.72537 43.8977 3.74654 43.9423 3.76834C45.2264 4.39802 46.4881 5.13736 47.6666 5.95514C47.7789 6.02345 47.8807 6.07126 48.0011 6.12064C48.2277 6.22284 48.4293 6.32783 48.5803 6.53371C48.7169 6.94201 48.6594 7.40105 48.6381 7.82436C48.6344 7.95234 48.6311 8.08033 48.628 8.20833C48.619 8.53295 48.6051 8.85709 48.5891 9.18142C48.581 9.34901 48.5739 9.51659 48.5673 9.68425C48.5141 11.0082 48.3982 12.3281 48.2853 13.6478C48.2821 13.6849 48.279 13.722 48.2757 13.7603C48.2573 13.9756 48.2386 14.1909 48.2195 14.4062C48.2109 14.5029 48.2025 14.5996 48.1941 14.6964C48.1588 15.0891 48.1083 15.4771 48.045 15.8661C47.8799 15.7819 47.8432 15.5863 47.7743 15.4193C47.46 14.6809 47.0946 13.9887 46.6337 13.3344C46.6135 13.3057 46.5933 13.277 46.5726 13.2475C45.4679 11.698 43.9178 10.6378 42.0591 10.3064C39.5737 9.93205 37.2213 10.814 35.0312 11.9326C34.9052 11.9942 34.9052 11.9942 34.7592 12.0438C34.7151 11.4194 34.704 10.7986 34.7057 10.1728C34.7058 10.0772 34.7059 9.98153 34.706 9.88591C34.7061 9.63727 34.7066 9.38862 34.7072 9.13997C34.7077 8.88503 34.7079 8.63009 34.7081 8.37515C34.7086 7.87717 34.7095 7.37918 34.7105 6.88119C35.3312 6.79425 35.9493 6.71115 36.575 6.67332C36.6376 6.66933 36.7001 6.66534 36.7646 6.66123C37.3777 6.62518 37.9899 6.6225 38.6038 6.63299C38.6033 6.57945 38.6028 6.52591 38.6022 6.47075C38.5938 5.49146 38.5942 4.51466 38.6494 3.53667C38.6526 3.48014 38.6526 3.48014 38.6558 3.42246C38.7268 2.18611 38.7268 2.18611 38.7984 1.9668Z" fill="#1447E6"/>
<path d="M11.5946 20.9785C11.7394 21.1206 11.8636 21.27 11.987 21.4315C12.8926 22.5629 14.268 23.2465 15.6826 23.4109C15.725 23.4163 15.7674 23.4218 15.8111 23.4274C17.6459 23.6326 19.5866 23.1136 21.2561 22.3654C21.3765 22.3188 21.3765 22.3188 21.5225 22.3188C21.4576 22.4592 21.3844 22.5817 21.294 22.7064C21.2544 22.7613 21.2544 22.7613 21.214 22.8172C21.171 22.8761 21.171 22.8761 21.1271 22.9362C21.0971 22.9775 21.0672 23.0188 21.0363 23.0613C20.7768 23.4177 20.5134 23.7711 20.2489 24.1237C20.0762 24.354 19.9047 24.5852 19.7352 24.818C19.4407 25.2224 19.1333 25.6146 18.8194 26.0035C18.7566 26.0815 18.6942 26.1599 18.6318 26.2383C18.209 26.7699 17.7722 27.288 17.3159 27.7901C17.2047 27.9133 17.0959 28.0382 16.9875 28.164C16.7855 28.3934 16.5742 28.6126 16.3609 28.831C16.3287 28.864 16.2966 28.8971 16.2634 28.9311C16.0453 29.1529 15.819 29.3618 15.5853 29.5663C15.5344 29.6116 15.4836 29.6569 15.4328 29.7022C15.0609 30.0286 14.6748 30.3243 14.2713 30.6087C13.6828 30.3241 13.1232 29.9989 12.5661 29.6552C12.4712 29.5967 12.3762 29.5384 12.2811 29.4803C10.9264 28.6533 9.58404 27.7715 8.33401 26.7864C8.27288 26.7392 8.21173 26.6919 8.15057 26.6447C7.77823 26.3546 7.4291 26.0439 7.09061 25.7136C7.02526 25.6498 6.95936 25.5866 6.89342 25.5235C6.656 25.2907 6.44722 25.0486 6.29004 24.7512C6.29004 24.7184 6.29004 24.6857 6.29004 24.6519C6.38346 24.5678 6.47714 24.4901 6.57595 24.413C6.60651 24.3889 6.63706 24.3648 6.66854 24.3399C7.05476 24.0374 7.44994 23.7475 7.84735 23.4605C7.89217 23.4282 7.93698 23.3958 7.98316 23.3624C8.50052 22.9896 9.01971 22.6238 9.55998 22.2864C9.75889 22.1622 9.95442 22.0329 10.1499 21.9031C10.4588 21.6982 10.7691 21.4958 11.0806 21.295C11.1407 21.2562 11.1407 21.2562 11.202 21.2166C11.2392 21.1927 11.2763 21.1687 11.3146 21.1441C11.3476 21.1229 11.3805 21.1017 11.4145 21.0798C11.4973 21.0282 11.4973 21.0282 11.5946 20.9785Z" fill="#1447E6"/>
<path d="M33.0075 14.625C33.6736 16.7658 33.1806 19.6049 32.2775 21.6243C32.1801 21.7732 32.1801 21.7732 32.069 21.8042C31.9985 21.8135 31.9985 21.8135 31.9265 21.8229C31.8722 21.8307 31.8179 21.8385 31.7619 21.8466C31.7012 21.8551 31.6405 21.8637 31.5779 21.8725C29.6813 22.1675 27.8381 22.7767 25.9998 23.3221C25.9157 23.3471 25.8315 23.372 25.7473 23.397C25.5895 23.4437 25.4318 23.4907 25.2741 23.5378C24.9339 23.639 24.5951 23.7367 24.2476 23.8085C24.2773 23.4839 24.3518 23.1876 24.4432 22.8758C24.4578 22.8251 24.4724 22.7744 24.4874 22.7222C24.5339 22.5609 24.5808 22.3998 24.6278 22.2386C24.674 22.0788 24.7201 21.9191 24.7662 21.7593C24.796 21.6563 24.8259 21.5534 24.8559 21.4505C24.9185 21.2357 24.9804 21.0211 25.036 20.8043C25.052 20.7424 25.0681 20.6804 25.0846 20.6166C25.1036 20.5393 25.1036 20.5393 25.1229 20.4604C25.2213 20.2073 25.4359 20.1142 25.6589 19.9862C25.8162 19.8846 25.9716 19.78 26.1273 19.6759C26.213 19.6193 26.2986 19.5627 26.3843 19.506C27.0332 19.0752 27.6616 18.615 28.2868 18.1495C28.3257 18.1206 28.3646 18.0917 28.4047 18.0619C29.0465 17.5844 29.6729 17.092 30.2882 16.5796C30.5771 16.3393 30.8694 16.1057 31.1699 15.8806C31.2712 15.8046 31.3721 15.7283 31.4731 15.6519C31.6708 15.5027 31.8688 15.3541 32.0672 15.2059C32.1402 15.1513 32.2131 15.0966 32.2859 15.0417C32.3802 14.9707 32.4748 14.9002 32.5695 14.8298C32.5971 14.8088 32.6248 14.7878 32.6534 14.7662C32.8448 14.625 32.8448 14.625 33.0075 14.625Z" fill="#1447E6"/>
<path d="M6.07115 8.37513C6.5524 8.83278 6.87479 9.42152 7.0688 10.0584C7.08072 10.0972 7.09264 10.136 7.10492 10.1759C7.34367 11.1401 7.11801 12.1522 6.6377 12.9951C6.14908 13.799 5.36724 14.3219 4.48342 14.5726C3.47345 14.7756 2.48856 14.5852 1.6182 14.0297C1.4397 13.8942 1.2854 13.7464 1.13154 13.5829C1.09421 13.5464 1.05689 13.5098 1.01843 13.4722C0.367168 12.7989 0.0951382 11.8754 0.0942383 10.9472C0.110172 10.0452 0.442446 9.2391 1.03421 8.56923C1.06112 8.53775 1.08803 8.50626 1.11576 8.47383C2.43613 7.02095 4.67045 7.18079 6.07115 8.37513Z" fill="#1447E6"/>
<path d="M10.2809 13.8804C10.3321 13.9173 10.3833 13.9541 10.436 13.9921C10.8983 14.4531 11.1239 14.9862 11.1326 15.6427C11.1252 16.2507 10.9339 16.7695 10.5225 17.2141C10.0156 17.7029 9.4606 17.8803 8.76941 17.8639C8.16274 17.8252 7.6771 17.522 7.26247 17.0789C6.90597 16.6312 6.7727 16.0865 6.77695 15.5186C6.85263 14.8705 7.08549 14.3744 7.55561 13.9301C8.39525 13.3051 9.42611 13.2599 10.2809 13.8804Z" fill="#1447E6"/>
<path d="M12.6179 1.22182C12.5832 1.24112 12.5832 1.24112 12.5478 1.2608C11.9342 1.63771 11.4492 2.24213 11.0119 2.81032C10.9649 2.86887 10.9178 2.92729 10.8705 2.98561C10.2688 3.72901 9.71224 4.50585 9.16015 5.28787C9.03087 5.47086 8.90147 5.65373 8.77025 5.83527C8.73757 5.88077 8.70489 5.92627 8.67121 5.97314C8.58109 6.08357 8.50513 6.1625 8.38397 6.2355C8.31973 6.2355 8.25549 6.2355 8.1893 6.2355C8.02686 5.93751 8.05642 5.65757 8.14368 5.33557C8.42974 4.37455 8.92698 3.58995 9.60062 2.85996C9.62929 2.82694 9.65796 2.79392 9.6875 2.7599C10.3033 2.08071 11.2054 1.6019 12.0491 1.29008C12.0838 1.27716 12.1184 1.26425 12.1541 1.25095C12.4492 1.14837 12.4492 1.14837 12.6179 1.22182Z" fill="#1447E6"/>
<path d="M2.93222 8.46931C2.76606 8.67448 2.59477 8.86256 2.40602 9.04638C1.87928 9.57963 1.51931 10.239 1.27757 10.9513C1.24545 10.9349 1.21333 10.9186 1.18024 10.9017C1.13532 10.2134 1.29335 9.73691 1.70435 9.19104C1.95814 8.89635 2.51826 8.32856 2.93222 8.46931Z" fill="#1447E6"/>
<path d="M3.6045 8.6156C3.64296 8.61605 3.68142 8.61649 3.72104 8.61696C3.76423 8.61782 3.76423 8.61782 3.80829 8.6187C3.55915 8.83302 3.29188 8.96374 2.99922 9.1058C2.94815 9.13136 2.89709 9.15692 2.84448 9.18326C2.79554 9.20716 2.74661 9.23106 2.6962 9.25569C2.65162 9.27756 2.60704 9.29943 2.56111 9.32197C2.44564 9.36331 2.44564 9.36331 2.29964 9.31367C2.19418 9.35709 2.19418 9.35709 2.10498 9.41295C2.22044 9.14427 2.41472 8.94543 2.64031 8.76762C2.80239 8.7055 2.95545 8.68456 3.12697 8.66834C3.1871 8.65538 3.1871 8.65538 3.24844 8.64216C3.37049 8.61866 3.48053 8.61371 3.6045 8.6156Z" fill="#1447E6"/>
<path d="M8.28559 14.2773C8.28559 14.3101 8.28559 14.3429 8.28559 14.3766C8.24444 14.4084 8.20328 14.4401 8.16088 14.4728C7.85727 14.7194 7.66696 15.1135 7.50693 15.4687C7.49087 15.4687 7.47481 15.4687 7.45827 15.4687C7.43674 15.1101 7.52328 14.864 7.74418 14.5876C7.90274 14.409 8.04038 14.2773 8.28559 14.2773Z" fill="#1447E6"/>
<path d="M71.4889 4.8926C72.4378 5.78625 72.7738 7.00459 72.8501 8.28967C72.8985 9.56577 72.8876 10.9929 72.3147 12.1616C72.4537 12.1307 72.5926 12.0997 72.7314 12.0685C72.7704 12.0599 72.8093 12.0513 72.8494 12.0424C73.0269 12.0025 73.2003 11.9601 73.3746 11.9068C73.5187 11.8673 73.6272 11.8602 73.7747 11.8638C73.7768 11.8954 73.7789 11.927 73.7811 11.9596C73.808 12.361 73.8354 12.7624 73.8629 13.1637C73.8673 13.2273 73.8716 13.2909 73.8761 13.3564C73.9299 14.1361 73.9856 14.9144 74.0776 15.6905C74.0834 15.7404 74.0891 15.7904 74.095 15.8418C74.1027 15.9038 74.1027 15.9038 74.1106 15.967C74.1159 16.0961 74.0961 16.2062 74.0667 16.3314C70.9198 16.9658 67.7743 17.3494 64.565 17.331C64.3619 17.33 64.1589 17.3296 63.9559 17.3291C63.5626 17.328 63.1694 17.3263 62.7762 17.3242C62.7653 17.6493 62.7653 17.6493 62.9222 17.9199C63.3891 18.3375 64.0549 18.4703 64.6613 18.4739C64.6928 18.4742 64.7242 18.4744 64.7567 18.4747C64.8607 18.4754 64.9646 18.4758 65.0686 18.476C65.1049 18.4762 65.1412 18.4763 65.1785 18.4765C65.372 18.4772 65.5655 18.4777 65.759 18.4779C65.9153 18.4781 66.0716 18.4788 66.2279 18.4799C67.6429 18.4901 69.0545 18.4336 70.4502 18.1774C70.4859 18.1711 70.5217 18.1648 70.5585 18.1582C71.5639 17.9799 72.5226 17.7204 73.4793 17.3559C73.5801 17.3242 73.5801 17.3242 73.7261 17.3242C73.8353 17.6359 73.9444 17.9477 74.0534 18.2595C74.0904 18.3655 74.1276 18.4715 74.1647 18.5774C74.2182 18.7301 74.2715 18.8828 74.3249 19.0355C74.3414 19.0825 74.3579 19.1296 74.375 19.1781C74.4589 19.4188 74.5366 19.6589 74.602 19.9055C74.0641 19.9921 73.5269 20.0654 72.9839 20.1103C72.9401 20.114 72.8963 20.1178 72.8512 20.1216C71.9336 20.1929 71.0124 20.2103 70.0924 20.2148C69.9274 20.2156 69.7624 20.2168 69.5974 20.218C69.1292 20.2214 68.6611 20.2245 68.1929 20.227C67.9037 20.2286 67.6145 20.2307 67.3253 20.233C67.217 20.2338 67.1087 20.2344 67.0004 20.2348C66.0077 20.2389 65.0081 20.2782 64.0263 20.4392C63.9487 20.4518 63.9487 20.4518 63.8696 20.4646C62.2107 20.7493 60.5694 21.568 59.4907 22.927C59.4182 22.9832 59.4182 22.9832 59.308 22.9795C59.1406 22.9218 58.996 22.8384 58.8464 22.7443C58.7991 22.7149 58.7991 22.7149 58.7509 22.6849C58.1227 22.2879 57.5395 21.8424 56.9849 21.3451C56.9338 21.3012 56.9338 21.3012 56.8817 21.2565C55.7551 20.2841 54.7081 18.9731 54.5516 17.4235C54.5002 16.6861 54.6563 15.9684 55.0383 15.3386C54.946 15.3016 54.8537 15.2646 54.7613 15.2277C54.6819 15.196 54.6025 15.164 54.5233 15.1318C54.3358 15.0563 54.1503 14.985 53.9558 14.9302C53.8955 14.9124 53.8351 14.8947 53.773 14.8763C53.6917 14.8551 53.6917 14.8551 53.6087 14.8335C53.481 14.7429 53.481 14.7429 53.4493 14.6438C53.3962 14.3386 53.3551 14.0341 53.3243 13.7257C53.3193 13.6772 53.3143 13.6287 53.3091 13.5787C53.2932 13.4228 53.2775 13.2669 53.262 13.111C53.2539 13.0316 53.2539 13.0316 53.2457 12.9506C53.1623 12.1259 53.0897 11.3016 53.043 10.4739C53.4284 10.5982 53.8031 10.7488 54.1791 10.8997C57.6871 12.3056 61.2927 13.5552 65.1152 13.384C65.1546 13.3825 65.1941 13.381 65.2347 13.3794C65.4382 13.3689 65.6108 13.3549 65.7935 13.2537C65.9206 13.0996 65.9825 12.9979 66.0094 12.7976C65.9851 12.6382 65.9599 12.6098 65.8421 12.5091C65.5664 12.384 65.3157 12.3307 65.0169 12.3018C64.9317 12.2926 64.8464 12.2833 64.7612 12.274C64.7168 12.2694 64.6724 12.2648 64.6266 12.26C61.1916 11.897 57.8955 10.8897 54.5887 9.91763C54.4304 9.87116 54.272 9.82494 54.1136 9.77888C54.059 9.5431 54.0448 9.30694 54.0282 9.06601C54.0248 9.01956 54.0215 8.97312 54.0181 8.92527C54.0071 8.77198 53.9964 8.61867 53.9857 8.46535C53.9781 8.35858 53.9706 8.25182 53.963 8.14505C53.9471 7.92131 53.9314 7.69756 53.9157 7.47381C53.8957 7.18742 53.8754 6.90105 53.855 6.61469C53.8394 6.39418 53.8238 6.17367 53.8083 5.95316C53.8009 5.84759 53.7934 5.74202 53.7859 5.63646C53.7754 5.48868 53.7651 5.34089 53.7548 5.19309C53.7501 5.12801 53.7501 5.12801 53.7454 5.06162C53.7294 4.82972 53.7212 4.60055 53.7243 4.36808C55.7609 4.48308 57.7923 4.6355 59.8213 4.84925C60.6042 4.93093 61.3864 4.96884 62.1729 4.98872C62.2895 4.99169 62.406 4.99493 62.5226 4.99819C64.1605 5.04233 65.7453 4.98939 67.348 4.61778C68.6439 4.31862 70.3748 3.93042 71.4889 4.8926Z" fill="#1447E6"/>
<path d="M86.499 25.4448C86.9396 25.8708 87.2124 26.4534 87.2653 27.0694C87.2832 27.9432 86.9107 28.6343 86.3795 29.2875C86.4443 29.2649 86.4443 29.2649 86.5104 29.2419C86.671 29.1862 86.8317 29.1307 86.9925 29.0754C87.0621 29.0514 87.1315 29.0274 87.201 29.0032C87.3009 28.9684 87.401 28.934 87.5011 28.8997C87.5612 28.8789 87.6213 28.8581 87.6833 28.8367C87.8394 28.7911 87.8394 28.7911 88.0341 28.7911C88.1287 29.9653 88.2128 31.1393 88.2774 32.3156C87.9908 32.4159 87.7033 32.506 87.4108 32.5866C87.3275 32.6099 87.2443 32.6332 87.161 32.6565C87.1175 32.6686 87.0741 32.6808 87.0293 32.6933C84.677 33.3521 82.3498 34.1184 80.0498 34.9465C76.5467 36.2072 73.0185 37.3841 69.3982 38.2435C69.3646 38.2515 69.331 38.2596 69.2964 38.2679C69.0658 38.322 69.0658 38.322 68.957 38.322C69.0139 37.3423 69.0937 36.3688 69.2003 35.3933C69.2513 35.3771 69.3024 35.3609 69.3549 35.3443C70.5779 34.9559 71.7927 34.5498 72.9963 34.1026C73.035 34.0882 73.0738 34.0738 73.1138 34.059C75.104 33.4552 75.104 33.4552 76.6128 32.1511C76.6595 31.965 76.6589 31.8012 76.5976 31.6206C76.384 31.3875 76.1675 31.2879 75.8579 31.2582C73.8881 31.2514 71.8771 32.1156 70.3196 33.3084C70.275 33.3424 70.2304 33.3764 70.1845 33.4115C69.6661 33.8225 69.1846 34.2846 68.7623 34.7976C68.7386 34.822 68.7149 34.8463 68.6905 34.8715C68.4132 35.1875 68.4061 35.5464 68.3779 35.9502C68.3719 36.0231 68.3658 36.0959 68.3596 36.1688C68.3436 36.3594 68.3291 36.55 68.3149 36.7407C68.3002 36.9358 68.284 37.1308 68.2679 37.3257C68.2366 37.7074 68.207 38.0891 68.1783 38.471C67.3044 38.5974 66.4545 38.6813 65.5717 38.6819C65.5276 38.682 65.4835 38.682 65.4381 38.682C64.0565 38.6804 62.7314 38.4773 61.3955 38.1173C61.3503 38.1053 61.3052 38.0933 61.2587 38.081C61.2171 38.0693 61.1756 38.0576 61.1328 38.0455C61.0964 38.0354 61.0601 38.0253 61.0226 38.0149C60.8686 37.9499 60.8012 37.8685 60.7297 37.7161C60.6772 37.5708 60.625 37.4255 60.5743 37.2796C60.5551 37.2246 60.5359 37.1696 60.5162 37.113C59.6951 34.7016 59.5233 32.1349 59.6496 29.6008C59.6527 29.5381 59.6527 29.5381 59.6558 29.4741C59.8335 25.9092 59.8335 25.9092 60.0998 25.3659C60.3967 25.4614 60.6845 25.5729 60.9731 25.692C63.286 26.6459 65.6469 27.2575 68.1515 27.3346C68.1987 27.3361 68.246 27.3377 68.2947 27.3393C68.3369 27.3405 68.379 27.3417 68.4225 27.3429C68.519 27.3515 68.519 27.3515 68.5677 27.4012C68.5751 27.4818 68.5793 27.5628 68.5821 27.6438C68.5841 27.6954 68.586 27.7471 68.588 27.8003C68.5899 27.8566 68.5918 27.9128 68.5937 27.9707C68.5958 28.0279 68.5979 28.0851 68.6001 28.1441C68.6067 28.3277 68.613 28.5113 68.6194 28.6949C68.6238 28.819 68.6283 28.9432 68.6328 29.0673C68.6438 29.3724 68.6545 29.6774 68.665 29.9825C68.6999 29.9435 68.7348 29.9044 68.7708 29.8643C69.3746 29.1903 69.9779 28.5788 70.709 28.0465C70.7391 28.0245 70.7693 28.0025 70.8003 27.9799C73.9981 25.6746 78.0374 24.9224 81.8527 24.4837C81.9412 24.4735 82.0298 24.463 82.1183 24.4524C83.7182 24.263 85.2168 24.3398 86.499 25.4448Z" fill="#1447E6"/>
<path d="M84.5789 1.33984C84.7195 1.90733 84.8124 2.4813 84.9043 3.05864C84.9125 3.1099 84.9208 3.16116 84.9292 3.21397C85.1488 4.58733 85.3266 5.9667 85.5035 7.34633C85.6745 7.25943 85.8455 7.17247 86.0164 7.08544C86.1025 7.04163 86.1886 6.99787 86.2747 6.95412C86.6839 6.74571 87.0894 6.53098 87.4933 6.31222C87.7524 6.17225 88.0145 6.03897 88.2775 5.90676C88.3589 6.18491 88.4201 6.43452 88.3133 6.71179C88.2137 6.87705 88.1055 7.03306 87.9916 7.1881C87.9509 7.24624 87.9104 7.30451 87.8701 7.36292C87.7876 7.48224 87.7042 7.6009 87.6203 7.71916C87.438 7.97725 87.2684 8.24389 87.0973 8.50977C86.753 9.03818 86.3994 9.55948 86.0388 10.0765C86.013 10.1137 85.9871 10.1509 85.9605 10.1892C85.5593 10.7647 85.1429 11.3274 84.7214 11.8875C84.6326 12.0058 84.5443 12.1245 84.4562 12.2435C84.1751 12.6226 83.8878 12.993 83.5839 13.3534C83.4651 13.4952 83.3494 13.639 83.2345 13.7841C83.0581 14.005 82.8746 14.2177 82.6866 14.4284C82.5942 14.5322 82.5034 14.637 82.4132 14.7427C82.1202 15.0851 81.8246 15.4216 81.5066 15.7402C81.4216 15.8285 81.3441 15.9197 81.2665 16.0148C80.9868 16.3456 80.6625 16.6347 80.3449 16.9269C80.3036 16.9649 80.3036 16.9649 80.2615 17.0037C79.8617 17.3682 79.439 17.6829 78.9823 17.9694C78.9329 18.0004 78.9329 18.0004 78.8825 18.032C78.4408 18.305 77.9866 18.5277 77.5071 18.7233C77.4352 18.753 77.4352 18.753 77.3618 18.7833C77.3166 18.8011 77.2714 18.8188 77.2248 18.8371C77.1847 18.8529 77.1447 18.8687 77.1034 18.885C76.9678 18.9171 76.8768 18.8997 76.7436 18.8629C76.5842 17.9256 76.4377 16.9889 76.3391 16.0427C76.3332 15.9868 76.3332 15.9868 76.3272 15.9297C76.2431 15.1241 76.2001 14.3226 76.195 13.5128C76.1947 13.471 76.1944 13.4291 76.1941 13.386C76.1918 13.0616 76.1907 12.7372 76.19 12.4127C76.1899 12.3646 76.1898 12.3165 76.1897 12.2669C76.1856 10.5105 76.2405 8.75928 76.3239 7.00505C76.3293 6.88821 76.3348 6.77137 76.3402 6.65453C76.3532 6.37826 76.3669 6.10204 76.381 5.82584C76.3862 5.72381 76.3913 5.62178 76.3963 5.51975C76.4032 5.38004 76.4106 5.24038 76.4182 5.10071C76.4211 5.03957 76.4211 5.03957 76.4241 4.97719C76.4358 4.77434 76.4472 4.59502 76.549 4.41755C76.6388 4.35824 76.6388 4.35824 76.75 4.31776C76.8131 4.29397 76.8131 4.29397 76.8775 4.2697C76.9237 4.25335 76.9699 4.237 77.0176 4.22015C77.066 4.20215 77.1144 4.18414 77.1643 4.1656C77.2696 4.12658 77.3749 4.08798 77.4805 4.04975C77.707 3.96765 77.9328 3.88349 78.1586 3.79941C78.2758 3.75578 78.3931 3.71224 78.5104 3.6688C79.0836 3.45617 79.6522 3.23229 80.2202 3.0059C80.3662 2.94786 80.5122 2.88987 80.6582 2.83188C80.7568 2.79272 80.8553 2.75356 80.9539 2.71438C81.5114 2.49286 82.0697 2.27345 82.6281 2.05434C82.739 2.01082 82.8499 1.96726 82.9608 1.92369C83.1153 1.86301 83.2697 1.8024 83.4242 1.74181C83.4692 1.72412 83.5142 1.70642 83.5606 1.68819C83.7867 1.59961 84.0133 1.51222 84.2404 1.42641C84.2843 1.40982 84.3281 1.39322 84.3733 1.37613C84.4815 1.33984 84.4815 1.33984 84.5789 1.33984Z" fill="#1447E6"/>
<path d="M88.5212 8.24023C88.5533 8.24023 88.5854 8.24023 88.6185 8.24023C88.697 8.79332 88.7749 9.3465 88.852 9.8998C88.8878 10.1567 88.9238 10.4136 88.9603 10.6704C88.9956 10.9181 89.0302 11.166 89.0645 11.4139C89.0776 11.5085 89.091 11.6031 89.1046 11.6977C89.1236 11.83 89.1419 11.9624 89.1599 12.0949C89.1657 12.1341 89.1716 12.1733 89.1775 12.2137C89.2213 12.5453 89.2213 12.5453 89.1052 12.7079C88.9975 12.8191 88.8738 12.9107 88.7523 13.0057C88.715 13.0351 88.6777 13.0646 88.6392 13.0949C88.0643 13.5397 87.4562 13.9397 86.8516 14.3409C86.7707 14.3946 86.69 14.4486 86.6093 14.5025C86.5611 14.5344 86.5129 14.5662 86.4633 14.599C86.4212 14.627 86.379 14.655 86.3356 14.6838C86.2339 14.7431 86.2339 14.7431 86.1365 14.7431C86.14 14.8021 86.1436 14.861 86.1472 14.9217C86.1856 15.6491 86.1907 16.3758 86.1913 17.1041C86.1915 17.1774 86.1915 17.1774 86.1916 17.2521C86.1928 17.7982 86.1865 18.3437 86.1666 18.8895C86.1651 18.9365 86.1636 18.9835 86.1621 19.032C86.1515 19.2848 86.1412 19.5228 86.0392 19.7568C85.9023 19.8551 85.9023 19.8551 85.7263 19.9327C85.6945 19.9471 85.6627 19.9615 85.63 19.9763C85.5256 20.0233 85.4205 20.0685 85.3153 20.1136C85.2416 20.1462 85.1681 20.179 85.0945 20.2118C84.9451 20.2783 84.7954 20.3439 84.6455 20.409C84.4596 20.4896 84.2748 20.5724 84.0903 20.6559C78.9179 22.9834 78.9179 22.9834 77.62 22.9834C77.4664 22.4267 77.3412 21.8657 77.2235 21.3001C77.1937 21.1572 77.1636 21.0145 77.1335 20.8718C77.1144 20.7806 77.0953 20.6895 77.0763 20.5984C77.0628 20.5346 77.0628 20.5346 77.0491 20.4696C77.041 20.4302 77.0328 20.3909 77.0244 20.3504C77.0172 20.3159 77.01 20.2815 77.0026 20.246C76.9873 20.1539 76.9873 20.1539 76.9873 20.005C77.0435 19.9868 77.0996 19.9687 77.1574 19.9499C78.3838 19.5398 79.5323 18.9442 80.5399 18.1187C80.5896 18.0782 80.6392 18.0378 80.6903 17.9961C81.1451 17.6138 81.5591 17.1874 81.9756 16.7629C82.0055 16.7324 82.0354 16.702 82.0662 16.6706C82.3538 16.3772 82.6402 16.0847 82.9042 15.7688C83.0107 15.6415 83.123 15.5202 83.2348 15.3978C83.4426 15.1683 83.6391 14.932 83.8312 14.6886C83.962 14.5252 84.097 14.3659 84.2325 14.2064C84.5217 13.8646 84.7954 13.512 85.0659 13.1546C85.1041 13.1044 85.1424 13.0542 85.1818 13.0024C86.1372 11.7433 87.054 10.4547 87.9239 9.1326C87.962 9.07475 88.0002 9.01691 88.0384 8.95906C88.112 8.84746 88.1851 8.73556 88.258 8.62348C88.291 8.57335 88.324 8.52322 88.3581 8.47157C88.3873 8.42684 88.4164 8.38212 88.4465 8.33604C88.4712 8.30442 88.4958 8.27281 88.5212 8.24023Z" fill="#1447E6"/>
<path d="M95.318 16.7562C95.7515 17.0297 96.0359 17.3687 96.1913 17.8648C96.2762 18.3249 96.2398 18.7997 96.016 19.2109C95.8079 19.5202 95.6178 19.7013 95.2708 19.8283C95.1136 19.8972 95.0193 19.9464 94.9492 20.1097C94.87 20.3845 94.8314 20.6642 94.7994 20.9483C94.833 20.9502 94.8665 20.952 94.9011 20.954C95.6385 21.0066 95.6385 21.0066 95.8944 21.2741C96.031 21.5006 96.0478 21.6773 96.016 21.9411C95.916 22.1379 95.8125 22.2735 95.6267 22.3879C95.4847 22.4059 95.4847 22.4059 95.3256 22.4034C95.2478 22.4031 95.2478 22.4031 95.1684 22.4028C94.9584 22.3848 94.7603 22.34 94.5561 22.2886C94.549 22.3324 94.5419 22.3761 94.5347 22.4212C94.5003 22.6335 94.4659 22.8458 94.4314 23.058C94.4218 23.1169 94.4218 23.1169 94.412 23.177C94.2906 23.9224 94.1636 24.6668 94.034 25.4108C94.027 25.4514 94.02 25.4919 94.0127 25.5337C93.9997 25.6089 93.9866 25.684 93.9734 25.7592C93.8093 26.5852 93.8093 26.5852 94.0105 27.3707C94.1352 27.541 94.263 27.6329 94.4587 27.6994C94.8809 27.7417 95.227 27.7091 95.578 27.4512C95.6102 27.4021 95.6423 27.3529 95.6754 27.3023C95.6478 27.2927 95.6203 27.2831 95.5919 27.2732C95.5562 27.2603 95.5205 27.2474 95.4838 27.234C95.4482 27.2214 95.4126 27.2087 95.376 27.1956C95.2861 27.1534 95.2861 27.1534 95.2374 27.0541C95.2191 26.9114 95.2191 26.9114 95.2374 26.7562C95.4046 26.5983 95.5898 26.4893 95.7893 26.3785C95.8186 26.3621 95.848 26.3457 95.8782 26.3288C95.9717 26.2766 96.0653 26.2248 96.159 26.173C96.2507 26.122 96.3423 26.071 96.4339 26.02C96.4948 25.986 96.5558 25.9521 96.6168 25.9184C96.7733 25.8314 96.9281 25.7424 97.0812 25.6493C97.1118 25.6309 97.1424 25.6125 97.1739 25.5935C97.2583 25.5423 97.3423 25.4906 97.4263 25.4388C97.5748 25.3656 97.6549 25.3454 97.8167 25.3663C97.9049 25.416 97.9049 25.416 97.9627 25.5152C97.9798 25.8471 97.9328 26.1617 97.8809 26.4889C97.8683 26.5701 97.8683 26.5701 97.8555 26.653C97.8377 26.7669 97.8198 26.8807 97.8017 26.9946C97.7741 27.1691 97.7472 27.3437 97.7203 27.5184C97.7029 27.6292 97.6855 27.74 97.668 27.8509C97.66 27.9031 97.652 27.9554 97.6437 28.0093C97.6321 28.0819 97.6321 28.0819 97.6201 28.1559C97.6134 28.1985 97.6067 28.2411 97.5998 28.2849C97.5734 28.3944 97.5734 28.3944 97.476 28.5433C97.3464 28.5885 97.265 28.6019 97.1323 28.565C96.9997 28.4646 96.9285 28.3385 96.8434 28.1958C96.6914 28.3415 96.5653 28.4895 96.4419 28.6612C96.1274 29.0784 95.6989 29.3803 95.1887 29.4865C95.0911 29.4898 94.9933 29.4907 94.8956 29.49C93.9672 29.4873 93.9672 29.4873 93.1447 29.8836C93.0636 29.9405 92.9825 29.9974 92.9014 30.0542C92.8675 30.078 92.8337 30.1018 92.7988 30.1264C92.6593 30.2098 92.571 30.2213 92.4148 30.1814C92.2365 30.0171 92.0995 29.8384 91.9616 29.6385C91.6366 29.191 91.2962 28.9716 90.7692 28.8256C90.2145 28.6591 89.7746 28.2995 89.4826 27.7925C89.3238 27.4777 89.2374 27.1482 89.1541 26.8059C89.0788 26.855 89.0788 26.855 89.002 26.9052C88.835 27.0021 88.7161 27.036 88.5215 27.0045C88.4395 26.9441 88.4395 26.9441 88.3755 26.8555C88.3686 26.7407 88.3686 26.7407 88.3848 26.6073C88.3906 26.5586 88.3964 26.5099 88.4024 26.4597C88.4361 26.2266 88.4745 25.995 88.5179 25.7636C88.527 25.7142 88.5362 25.6648 88.5457 25.6138C88.5651 25.5104 88.5846 25.407 88.6042 25.3036C88.6341 25.1454 88.6629 24.987 88.6917 24.8285C88.7107 24.7276 88.7298 24.6266 88.749 24.5257C88.7617 24.4549 88.7617 24.4549 88.7745 24.3827C88.8562 23.9654 88.8562 23.9654 89.0568 23.8275C89.2455 23.8239 89.3252 23.8564 89.4684 23.9822C89.5062 24.0274 89.544 24.0726 89.583 24.1191C89.6249 24.1686 89.6668 24.218 89.71 24.269C89.8634 24.4565 90.015 24.6455 90.1653 24.8356C90.2729 24.9685 90.3845 25.0963 90.4985 25.2236C91.0376 25.8324 91.0376 25.8324 91.0825 26.0799C91.0482 26.2271 91.0209 26.2671 90.9061 26.3591C90.796 26.3845 90.796 26.3845 90.678 26.3933C90.6386 26.3965 90.5993 26.3998 90.5588 26.4031C90.5289 26.405 90.4989 26.4069 90.4681 26.4088C90.6736 26.7326 90.9262 27.0179 91.2989 27.1355C91.5745 27.1879 91.7902 27.1614 92.0326 27.0225C92.5708 26.6183 92.6101 25.5817 92.7164 24.9529C92.7302 24.8731 92.744 24.7933 92.7578 24.7134C92.7937 24.5059 92.8292 24.2984 92.8646 24.0908C92.9216 23.7566 92.9792 23.4224 93.0368 23.0883C93.0568 22.9721 93.0766 22.8559 93.0964 22.7396C93.1086 22.6688 93.1207 22.5979 93.1329 22.5271C93.1487 22.4344 93.1487 22.4344 93.1649 22.3398C93.1934 22.1893 93.1934 22.1893 93.2421 22.0404C93.1933 22.0356 93.1446 22.0307 93.0944 22.0257C92.3512 21.9437 92.3512 21.9437 92.0771 21.6371C91.9992 21.4221 91.9938 21.2242 92.0254 20.998C92.1089 20.8178 92.187 20.727 92.3387 20.6039C92.7096 20.4911 93.1247 20.5718 93.4854 20.7001C93.4971 20.5949 93.5084 20.4896 93.5185 20.3842C93.5341 20.2534 93.5341 20.2534 93.5618 20.1271C93.5872 19.9947 93.6005 19.8909 93.5827 19.757C93.498 19.6436 93.4036 19.5591 93.2978 19.4661C93.0228 19.1861 92.9004 18.757 92.8862 18.367C92.8937 17.9105 93.0457 17.47 93.3366 17.1229C93.8595 16.6209 94.6538 16.4344 95.318 16.7562ZM94.5074 18.0692C94.4432 18.1347 94.3789 18.2002 94.3127 18.2677C94.3432 18.393 94.3432 18.393 94.4101 18.5159C94.5265 18.5736 94.5265 18.5736 94.6534 18.5656C94.7507 18.5159 94.7507 18.5159 94.7994 18.4167C94.8073 18.2873 94.8073 18.2873 94.7507 18.1685C94.6302 18.1002 94.6302 18.1002 94.5074 18.0692Z" fill="#1447E6"/>
<path d="M74.9909 20.9975C75.0463 21.1291 75.0874 21.2485 75.1248 21.3854C75.1355 21.4214 75.1462 21.4574 75.1573 21.4944C75.2073 21.6676 75.2343 21.8086 75.2343 21.9904C72.2632 23.567 68.9884 24.487 65.6258 24.4817C65.5901 24.4817 65.5544 24.4816 65.5177 24.4816C63.8972 24.4779 61.8929 24.3942 60.4398 23.5788C60.4157 23.5051 60.4157 23.5051 60.3911 23.4299C62.3362 21.6297 64.4203 21.2852 66.9867 21.2787C67.1505 21.2783 67.3142 21.2773 67.478 21.2761C67.8268 21.2738 68.1756 21.2721 68.5244 21.2706C70.4012 21.2649 70.4012 21.2649 72.2767 21.2013C72.3147 21.1995 72.3528 21.1976 72.392 21.1957C73.1503 21.1573 73.9015 21.0658 74.6532 20.9589C74.7849 20.9488 74.8708 20.9425 74.9909 20.9975Z" fill="#1447E6"/>
<path d="M58.2415 6.22652C58.4625 6.28499 58.685 6.33752 58.9072 6.39107C58.9758 6.40767 58.9758 6.40767 59.0458 6.42461C59.1537 6.4507 59.2616 6.47676 59.3695 6.50276C59.3695 6.53553 59.3695 6.56829 59.3695 6.60205C59.3071 6.60215 59.3071 6.60215 59.2433 6.60226C58.8509 6.60314 58.4585 6.60521 58.0661 6.6086C57.8644 6.6103 57.6627 6.61155 57.4609 6.61175C57.2662 6.61197 57.0715 6.61338 56.8768 6.61562C56.8026 6.61626 56.7283 6.61648 56.654 6.61625C56.5499 6.61601 56.446 6.6173 56.3419 6.61895C56.2531 6.61945 56.2531 6.61945 56.1624 6.61995C56.0029 6.63861 56.0029 6.63861 55.8971 6.77061C55.4283 7.52637 55.5413 8.63389 55.6222 9.48119C55.5741 9.48119 55.5259 9.48119 55.4762 9.48119C55.4121 9.35307 55.3483 9.22482 55.2846 9.09647C55.2664 9.06026 55.2483 9.02404 55.2296 8.98672C55.2122 8.95153 55.1948 8.91633 55.1768 8.88007C55.1608 8.84784 55.1447 8.8156 55.1282 8.78239C55.0525 8.60746 55.0317 8.44586 55.0281 8.25561C55.0271 8.20971 55.0262 8.16382 55.0252 8.11653C55.0224 7.90777 55.02 7.69901 55.0185 7.49023C55.0175 7.38011 55.0158 7.27 55.0135 7.15991C55.0103 7.00089 55.0089 6.84195 55.008 6.6829C55.006 6.60921 55.006 6.60921 55.0039 6.53403C55.0049 6.20163 55.0049 6.20163 55.1002 6.06923C55.8089 5.44267 57.4437 6.00905 58.2415 6.22652Z" fill="#1447E6"/>
</svg>
